<svg xmlns="http://www.w3.org/2000/svg" viewBox="0 0 192 192">
  <rect width="192" height="192" rx="28" fill="#0a2342"/>
  <!-- Bar chart -->
  <rect x="24" y="118" width="26" height="50" rx="4" fill="#00b4d8" opacity="0.65"/>
  <rect x="60" y="90" width="26" height="78" rx="4" fill="#00b4d8" opacity="0.80"/>
  <rect x="96" y="58" width="26" height="110" rx="4" fill="#00b4d8"/>
  <rect x="132" y="76" width="26" height="92" rx="4" fill="#48cae4" opacity="0.90"/>
  <!-- Trend line -->
  <polyline points="37,114 73,86 109,54 145,70"
            fill="none" stroke="#90e0ef" stroke-width="5.5"
            stroke-linecap="round" stroke-linejoin="round"/>
  <circle cx="37"  cy="114" r="5.5" fill="#90e0ef"/>
  <circle cx="73"  cy="86"  r="5.5" fill="#90e0ef"/>
  <circle cx="109" cy="54"  r="5.5" fill="#90e0ef"/>
  <circle cx="145" cy="70"  r="5.5" fill="#90e0ef"/>
  <!-- Wave (maritime) -->
  <path d="M18,172 Q38,161 58,172 Q78,183 98,172 Q118,161 138,172 Q158,183 174,172"
        fill="none" stroke="#0077b6" stroke-width="4.5" stroke-linecap="round"/>
</svg>
